<svg xmlns="http://www.w3.org/2000/svg" viewBox="0 0 512 512">
  <defs>
    <linearGradient id="bg-gradient" x1="0%" y1="0%" x2="100%" y2="100%">
      <stop offset="0%" style="stop-color:#4F46E5"/>
      <stop offset="100%" style="stop-color:#7C3AED"/>
    </linearGradient>
  </defs>
  <!-- Background -->
  <rect width="512" height="512" rx="96" fill="url(#bg-gradient)"/>
  <!-- House icon -->
  <path d="M256 120 L120 230 L120 400 L220 400 L220 300 L292 300 L292 400 L392 400 L392 230 Z" fill="white"/>
  <!-- Heart in house -->
  <path d="M256 220 C240 200 210 200 210 230 C210 260 256 300 256 300 C256 300 302 260 302 230 C302 200 272 200 256 220 Z" fill="#EF4444"/>
  <!-- Checkmark -->
  <circle cx="380" cy="380" r="80" fill="#10B981"/>
  <path d="M340 380 L365 405 L420 350" stroke="white" stroke-width="16" stroke-linecap="round" stroke-linejoin="round" fill="none"/>
</svg>
