<?xml version="1.0"?>
<svg xmlns="http://www.w3.org/2000/svg" viewBox="0 0 256 256" role="img" aria-label="Family Task Manager">
  <title>Family Task Manager — Huddle mark</title>
  <path d="M40,8 H216 C233.673,8 248,22.327 248,40 V216 C248,233.673 233.673,248 216,248 H40 C22.327,248 8,233.673 8,216 V40 C8,22.327 22.327,8 40,8 Z" fill="#4FB8E6" stroke="#1F2937" stroke-width="8" stroke-linejoin="round"></path>
  <path d="M8,176 C70,160 186,160 248,176 L248,216 C248,233.673 233.673,248 216,248 H40 C22.327,248 8,233.673 8,216 Z" fill="#FFC857" stroke="#1F2937" stroke-width="8" stroke-linejoin="round"></path>
  <path d="M40,228 Q40,166 96,166 Q120,166 120,210 L120,250 L36,250 Z" fill="#FFF8F0" stroke="#1F2937" stroke-width="7" stroke-linejoin="round"></path>
  <path d="M84,228 Q84,160 132,160 Q172,160 172,212 L172,250 L84,250 Z" fill="#FF8A65" stroke="#1F2937" stroke-width="7" stroke-linejoin="round"></path>
  <path d="M148,228 Q148,168 178,168 Q210,168 210,214 L210,250 L148,250 Z" fill="#5DD4A8" stroke="#1F2937" stroke-width="7" stroke-linejoin="round"></path>
  <path d="M188,232 Q188,194 212,194 Q236,194 236,224 L236,250 L188,250 Z" fill="#FFF8F0" stroke="#1F2937" stroke-width="7" stroke-linejoin="round"></path>
  <circle cx="74" cy="142" r="26" fill="#E8B690" stroke="#1F2937" stroke-width="7"></circle>
  <circle cx="124" cy="130" r="30" fill="#FBD3B2" stroke="#1F2937" stroke-width="7"></circle>
  <circle cx="174" cy="146" r="24" fill="#C68A60" stroke="#1F2937" stroke-width="7"></circle>
  <circle cx="216" cy="166" r="18" fill="#8E5B3D" stroke="#1F2937" stroke-width="7"></circle>
  <path d="M52,130 Q60,108 78,110 Q98,112 96,134 Q86,124 76,124 Q62,124 52,134 Z" fill="#1F1A17"></path>
  <path d="M98,116 Q110,96 130,98 Q152,100 152,124 Q140,114 124,114 Q108,114 98,128 Z" fill="#4E3A2A"></path>
  <path d="M154,138 Q160,120 174,122 Q192,124 192,140 Q184,134 176,134 Q164,134 154,144 Z" fill="#1F1A17"></path>
  <path d="M202,158 Q208,148 218,150 Q230,152 230,162 Q224,156 218,156 Q210,156 202,164 Z" fill="#4E3A2A"></path>
  <circle cx="212" cy="58" r="34" fill="#FFC857" stroke="#1F2937" stroke-width="8"></circle>
  <path d="M198,60 L210,72 L228,50" fill="none" stroke="#1F2937" stroke-width="9" stroke-linecap="round" stroke-linejoin="round"></path>
</svg>